<mxfile host="app.diagrams.net" modified="2021-12-09T16:03:20.554Z" agent="5.0 (Windows NT 10.0; Win64; x64) AppleWebKit/537.36 (KHTML, like Gecko) Chrome/96.0.4664.45 Safari/537.36" etag="-D756mHu2l7khTTmFSMs" version="15.9.4" type="github">
  <diagram id="RPgviHTX6qPIOWa3_TnH" name="第 1 页">
    <mxGraphModel dx="1488" dy="907" grid="1" gridSize="10" guides="1" tooltips="1" connect="1" arrows="1" fold="1" page="1" pageScale="1" pageWidth="827" pageHeight="1169" math="0" shadow="0">
      <root>
        <mxCell id="0" />
        <mxCell id="1" parent="0" />
        <mxCell id="qnQuVvg-fSns4-DkFREk-1" value="&lt;font style=&quot;font-size: 25px&quot;&gt;&lt;b&gt;hello&lt;/b&gt;&lt;/font&gt;" style="rounded=0;whiteSpace=wrap;html=1;" vertex="1" parent="1">
          <mxGeometry x="294" y="240" width="120" height="60" as="geometry" />
        </mxCell>
      </root>
    </mxGraphModel>
  </diagram>
</mxfile>
